<svg width="48" height="48" viewBox="0 0 48 48" xmlns="http://www.w3.org/2000/svg">
  <rect width="48" height="48" rx="13" fill="#8c90d9"/>
  <path transform="translate(8.13 6.03) scale(0.08242)" fill="#f7f5f1" fill-rule="evenodd" clip-rule="evenodd" d="M 36 36 L 36 400 L 239 400 L 260 397 L 277 392 L 291 386 L 313 372 L 330 354 L 342 333 L 348 312 L 349 287 L 343 262 L 332 242 L 312 222 L 290 210 L 303 201 L 317 187 L 327 170 L 333 149 L 334 130 L 331 111 L 322 89 L 310 72 L 301 63 L 284 51 L 259 41 L 241 37 Z M 98 91 L 224 91 L 240 94 L 252 99 L 259 104 L 267 113 L 271 120 L 274 130 L 274 147 L 269 161 L 257 175 L 244 183 L 230 187 L 127 188 L 127 239 L 227 239 L 249 243 L 265 250 L 271 254 L 283 267 L 288 277 L 290 287 L 290 296 L 287 308 L 280 320 L 269 331 L 252 340 L 231 344 L 98 344 L 96 342 L 96 93 Z"/>
</svg>
