<svg xmlns="http://www.w3.org/2000/svg" width="1457" height="570" viewBox="0 0 1457 570" fill="#0a0a0a">
  <path d="M 36 36 L 36 400 L 239 400 L 260 397 L 277 392 L 291 386 L 313 372 L 330 354 L 342 333 L 348 312 L 349 287 L 343 262 L 332 242 L 312 222 L 290 210 L 303 201 L 317 187 L 327 170 L 333 149 L 334 130 L 331 111 L 322 89 L 310 72 L 301 63 L 284 51 L 259 41 L 241 37 Z
M 953 133 L 883 134 L 792 297 L 784 309 L 780 304 L 687 133 L 617 133 L 702 282 L 749 368 L 725 413 L 655 533 L 755 478 Z
M 98 91 L 224 91 L 240 94 L 252 99 L 259 104 L 267 113 L 271 120 L 274 130 L 274 147 L 269 161 L 257 175 L 244 183 L 230 187 L 127 188 L 127 239 L 227 239 L 249 243 L 265 250 L 271 254 L 283 267 L 288 277 L 290 287 L 290 296 L 287 308 L 280 320 L 269 331 L 252 340 L 231 344 L 98 344 L 96 342 L 96 93 Z
M 980 251 L 980 279 L 985 302 L 988 308 L 1042 258 L 1045 238 L 1052 222 L 1059 212 L 1072 199 L 1094 186 L 1109 181 L 1120 179 L 1149 179 L 1159 181 L 1178 188 L 1196 200 L 1205 209 L 1212 219 L 1220 237 L 1096 239 L 1062 289 L 1285 289 L 1285 255 L 1281 231 L 1275 214 L 1267 198 L 1257 183 L 1235 161 L 1211 145 L 1185 134 L 1158 128 L 1122 127 L 1095 131 L 1070 139 L 1043 153 L 1028 164 L 1010 182 L 999 197 L 986 224 Z
M 1358 36 L 1357 400 L 1420 400 L 1420 36 Z
M 602 133 L 576 131 L 530 131 L 498 137 L 481 143 L 459 156 L 450 163 L 429 186 L 414 214 L 407 243 L 407 400 L 469 400 L 469 244 L 472 230 L 480 215 L 497 198 L 516 189 L 531 186 L 555 186 L 566 188 Z
M 1001 337 L 1010 350 L 1022 363 L 1047 382 L 1064 391 L 1086 399 L 1123 405 L 1160 404 L 1173 402 L 1201 394 L 1224 383 L 1241 372 L 1262 353 L 1225 315 L 1223 315 L 1202 334 L 1186 343 L 1170 349 L 1151 353 L 1123 353 L 1108 350 L 1094 345 L 1074 333 L 1057 315 L 1046 294 Z" fill="#0a0a0a" fill-rule="evenodd" clip-rule="evenodd"/>
</svg>
